<svg xmlns="http://www.w3.org/2000/svg" width="1280" height="720" viewBox="0 0 1280 720" role="img" aria-label="Static MediaPipe pose demo frame">
  <defs>
    <linearGradient id="bg" x1="0" y1="0" x2="1" y2="1">
      <stop offset="0%" stop-color="#0a1117"/>
      <stop offset="100%" stop-color="#05080b"/>
    </linearGradient>
    <linearGradient id="line" x1="0" y1="0" x2="1" y2="0">
      <stop offset="0%" stop-color="#40c9ff"/>
      <stop offset="100%" stop-color="#6affb4"/>
    </linearGradient>
  </defs>

  <rect width="1280" height="720" fill="url(#bg)"/>

  <g opacity="0.24" stroke="#2c3f4d" stroke-width="1">
    <line x1="0" y1="120" x2="1280" y2="120"/>
    <line x1="0" y1="240" x2="1280" y2="240"/>
    <line x1="0" y1="360" x2="1280" y2="360"/>
    <line x1="0" y1="480" x2="1280" y2="480"/>
    <line x1="0" y1="600" x2="1280" y2="600"/>
    <line x1="160" y1="0" x2="160" y2="720"/>
    <line x1="320" y1="0" x2="320" y2="720"/>
    <line x1="480" y1="0" x2="480" y2="720"/>
    <line x1="640" y1="0" x2="640" y2="720"/>
    <line x1="800" y1="0" x2="800" y2="720"/>
    <line x1="960" y1="0" x2="960" y2="720"/>
    <line x1="1120" y1="0" x2="1120" y2="720"/>
  </g>

  <g fill="none" stroke="url(#line)" stroke-width="5" stroke-linecap="round" stroke-linejoin="round">
    <line x1="640" y1="190" x2="640" y2="250"/>
    <line x1="640" y1="250" x2="585" y2="300"/>
    <line x1="640" y1="250" x2="695" y2="300"/>
    <line x1="585" y1="300" x2="540" y2="370"/>
    <line x1="695" y1="300" x2="740" y2="370"/>
    <line x1="640" y1="250" x2="615" y2="355"/>
    <line x1="640" y1="250" x2="665" y2="355"/>
    <line x1="615" y1="355" x2="600" y2="500"/>
    <line x1="665" y1="355" x2="680" y2="500"/>
    <line x1="600" y1="500" x2="570" y2="655"/>
    <line x1="680" y1="500" x2="710" y2="655"/>
  </g>

  <g fill="#9fe4ff" stroke="#0a1e2a" stroke-width="2">
    <circle cx="640" cy="160" r="20"/>
    <circle cx="640" cy="250" r="9"/>
    <circle cx="585" cy="300" r="9"/>
    <circle cx="695" cy="300" r="9"/>
    <circle cx="540" cy="370" r="9"/>
    <circle cx="740" cy="370" r="9"/>
    <circle cx="615" cy="355" r="9"/>
    <circle cx="665" cy="355" r="9"/>
    <circle cx="600" cy="500" r="9"/>
    <circle cx="680" cy="500" r="9"/>
    <circle cx="570" cy="655" r="9"/>
    <circle cx="710" cy="655" r="9"/>
  </g>

  <rect x="24" y="24" width="420" height="120" rx="12" fill="#07131b" stroke="#2f4a58"/>
  <text x="48" y="68" fill="#7edfff" font-size="30" font-family="monospace">MediaPipe Pose</text>
  <text x="48" y="102" fill="#a8b7c2" font-size="22" font-family="monospace">Static demo frame for GitHub Pages</text>

  <rect x="980" y="24" width="276" height="168" rx="12" fill="#061016" stroke="#2d3f4b"/>
  <text x="1004" y="68" fill="#8de7ff" font-size="20" font-family="monospace">knee_angle: 112</text>
  <text x="1004" y="96" fill="#8de7ff" font-size="20" font-family="monospace">elbow_angle: 165</text>
  <text x="1004" y="124" fill="#8de7ff" font-size="20" font-family="monospace">torso_tilt: 6</text>
  <text x="1004" y="152" fill="#8de7ff" font-size="20" font-family="monospace">activity: squat</text>
</svg>
